<?xml version="1.0" encoding="UTF-8"?>
<svg xmlns="http://www.w3.org/2000/svg" width="24.5pt" height="24.5pt" viewBox="0 0 810 809.999993" version="1.2">
<defs>
<clipPath id="clip1">
  <path d="M 286 206 L 524.890625 206 L 524.890625 604 L 286 604 Z M 286 206 "/>
</clipPath>
</defs>
<g id="surface1">
<g clip-path="url(#clip1)" clip-rule="nonzero">
<path style=" stroke:none;fill-rule:nonzero;fill:#2d70ca;fill-opacity:1;" d="M 386.878906 603.203125 L 421.964844 603.203125 C 429.917969 603.203125 436.46875 596.644531 436.46875 588.683594 L 436.46875 554.957031 L 443.953125 553.082031 C 503.367188 538.09375 524.890625 496.875 524.890625 466.425781 C 524.890625 409.75 476.234375 386.328125 428.515625 370.871094 C 383.601562 355.882812 369.566406 346.980469 369.566406 333.867188 C 369.566406 322.15625 383.132812 309.976562 414.011719 309.976562 C 447.695312 309.976562 469.214844 319.8125 478.105469 324.03125 C 479.976562 324.964844 482.316406 325.433594 484.1875 325.433594 C 489.800781 325.433594 494.949219 322.15625 497.285156 317.003906 L 511.320312 287.492188 C 513.191406 284.214844 513.191406 280 511.789062 276.25 C 510.386719 272.503906 507.578125 269.695312 504.304688 267.820312 C 487.460938 259.855469 469.214844 254.703125 448.632812 252.363281 L 440.210938 251.425781 L 440.210938 221.449219 C 440.210938 213.484375 433.660156 206.925781 425.707031 206.925781 L 391.085938 206.925781 C 383.132812 206.925781 376.585938 213.484375 376.585938 221.449219 L 376.585938 254.234375 L 369.097656 256.109375 C 320.445312 268.289062 291.90625 299.203125 291.90625 338.550781 C 291.90625 390.542969 343.367188 413.964844 393.894531 429.890625 C 440.679688 444.878906 446.761719 458.464844 446.761719 469.238281 C 446.761719 486.101562 424.773438 498.277344 394.832031 498.277344 C 369.097656 498.277344 341.964844 491.722656 321.378906 480.949219 C 319.039062 480.011719 316.703125 479.074219 314.363281 479.074219 C 312.960938 479.074219 311.085938 479.542969 309.683594 480.011719 C 305.941406 481.414062 302.667969 484.226562 301.261719 487.972656 L 287.695312 517.953125 C 284.890625 524.976562 287.226562 532.941406 293.777344 536.6875 C 310.621094 546.523438 336.351562 554.019531 363.015625 556.832031 L 371.90625 557.765625 L 371.90625 588.683594 C 371.90625 596.644531 378.457031 603.203125 386.878906 603.203125 Z M 386.878906 603.203125 "/>
</g>
<path style=" stroke:none;fill-rule:nonzero;fill:rgb(97.24884%,97.648621%,98.039246%);fill-opacity:1;" d="M 405 81 C 410.300781 81 415.601562 81.128906 420.898438 81.390625 C 426.195312 81.652344 431.480469 82.039062 436.757812 82.558594 C 442.035156 83.078125 447.296875 83.730469 452.539062 84.507812 C 457.785156 85.285156 463.007812 86.191406 468.210938 87.226562 C 473.410156 88.261719 478.582031 89.421875 483.726562 90.710938 C 488.871094 92 493.976562 93.414062 499.050781 94.953125 C 504.125 96.492188 509.160156 98.152344 514.152344 99.941406 C 519.144531 101.726562 524.089844 103.632812 528.988281 105.664062 C 533.886719 107.691406 538.734375 109.839844 543.527344 112.109375 C 548.320312 114.375 553.054688 116.757812 557.734375 119.257812 C 562.410156 121.757812 567.019531 124.371094 571.570312 127.097656 C 576.117188 129.820312 580.597656 132.65625 585.003906 135.605469 C 589.414062 138.550781 593.746094 141.601562 598.007812 144.761719 C 602.265625 147.917969 606.445312 151.179688 610.542969 154.542969 C 614.640625 157.910156 618.65625 161.371094 622.585938 164.933594 C 626.515625 168.492188 630.351562 172.148438 634.101562 175.898438 C 637.851562 179.648438 641.507812 183.484375 645.066406 187.414062 C 648.628906 191.34375 652.089844 195.359375 655.457031 199.457031 C 658.820312 203.554688 662.082031 207.734375 665.238281 211.992188 C 668.398438 216.253906 671.449219 220.585938 674.394531 224.996094 C 677.34375 229.402344 680.179688 233.882812 682.902344 238.429688 C 685.628906 242.980469 688.242188 247.589844 690.742188 252.265625 C 693.242188 256.945312 695.625 261.679688 697.890625 266.472656 C 700.160156 271.265625 702.308594 276.113281 704.335938 281.011719 C 706.367188 285.910156 708.273438 290.855469 710.058594 295.847656 C 711.847656 300.839844 713.507812 305.875 715.046875 310.949219 C 716.585938 316.023438 718 321.128906 719.289062 326.273438 C 720.578125 331.417969 721.738281 336.589844 722.773438 341.789062 C 723.808594 346.992188 724.714844 352.214844 725.492188 357.460938 C 726.269531 362.703125 726.921875 367.964844 727.441406 373.242188 C 727.960938 378.519531 728.347656 383.804688 728.609375 389.101562 C 728.871094 394.398438 729 399.699219 729 405 C 729 410.300781 728.871094 415.601562 728.609375 420.898438 C 728.347656 426.195312 727.960938 431.480469 727.441406 436.757812 C 726.921875 442.035156 726.269531 447.296875 725.492188 452.539062 C 724.714844 457.785156 723.808594 463.007812 722.773438 468.210938 C 721.738281 473.410156 720.578125 478.582031 719.289062 483.726562 C 718 488.871094 716.589844 493.976562 715.046875 499.050781 C 713.507812 504.125 711.847656 509.160156 710.058594 514.152344 C 708.273438 519.144531 706.367188 524.089844 704.335938 528.988281 C 702.308594 533.886719 700.160156 538.734375 697.890625 543.527344 C 695.625 548.320312 693.242188 553.054688 690.742188 557.734375 C 688.242188 562.410156 685.628906 567.019531 682.902344 571.570312 C 680.179688 576.117188 677.34375 580.597656 674.394531 585.003906 C 671.449219 589.414062 668.398438 593.746094 665.238281 598.007812 C 662.082031 602.265625 658.820312 606.445312 655.457031 610.542969 C 652.089844 614.640625 648.628906 618.65625 645.066406 622.585938 C 641.507812 626.515625 637.851562 630.351562 634.101562 634.101562 C 630.351562 637.851562 626.515625 641.507812 622.585938 645.066406 C 618.65625 648.628906 614.640625 652.089844 610.542969 655.457031 C 606.445312 658.820312 602.265625 662.082031 598.007812 665.238281 C 593.746094 668.398438 589.414062 671.449219 585.003906 674.394531 C 580.597656 677.34375 576.117188 680.179688 571.570312 682.902344 C 567.019531 685.628906 562.410156 688.242188 557.734375 690.742188 C 553.054688 693.242188 548.320312 695.625 543.527344 697.890625 C 538.734375 700.160156 533.886719 702.308594 528.988281 704.335938 C 524.089844 706.367188 519.144531 708.273438 514.152344 710.058594 C 509.160156 711.847656 504.125 713.507812 499.050781 715.046875 C 493.976562 716.585938 488.871094 718 483.726562 719.289062 C 478.582031 720.578125 473.410156 721.738281 468.210938 722.773438 C 463.007812 723.808594 457.785156 724.714844 452.539062 725.492188 C 447.296875 726.269531 442.035156 726.921875 436.757812 727.441406 C 431.480469 727.960938 426.195312 728.347656 420.898438 728.609375 C 415.601562 728.871094 410.300781 729 405 729 C 399.699219 729 394.398438 728.871094 389.101562 728.609375 C 383.804688 728.347656 378.519531 727.960938 373.242188 727.441406 C 367.964844 726.921875 362.703125 726.269531 357.460938 725.492188 C 352.214844 724.714844 346.992188 723.808594 341.789062 722.773438 C 336.589844 721.738281 331.417969 720.578125 326.273438 719.289062 C 321.128906 718 316.023438 716.589844 310.949219 715.046875 C 305.875 713.507812 300.839844 711.847656 295.847656 710.058594 C 290.855469 708.273438 285.910156 706.367188 281.011719 704.335938 C 276.113281 702.308594 271.265625 700.160156 266.472656 697.890625 C 261.679688 695.625 256.945312 693.242188 252.265625 690.742188 C 247.589844 688.242188 242.980469 685.628906 238.429688 682.902344 C 233.882812 680.179688 229.402344 677.34375 224.996094 674.394531 C 220.585938 671.449219 216.253906 668.398438 211.992188 665.238281 C 207.734375 662.082031 203.554688 658.820312 199.457031 655.457031 C 195.359375 652.089844 191.34375 648.628906 187.414062 645.066406 C 183.484375 641.507812 179.648438 637.851562 175.898438 634.101562 C 172.148438 630.351562 168.492188 626.515625 164.933594 622.585938 C 161.371094 618.65625 157.910156 614.640625 154.542969 610.542969 C 151.179688 606.445312 147.917969 602.265625 144.761719 598.007812 C 141.601562 593.746094 138.550781 589.414062 135.605469 585.003906 C 132.65625 580.597656 129.820312 576.117188 127.097656 571.570312 C 124.371094 567.019531 121.757812 562.410156 119.257812 557.734375 C 116.757812 553.054688 114.375 548.320312 112.109375 543.527344 C 109.839844 538.734375 107.691406 533.886719 105.664062 528.988281 C 103.632812 524.089844 101.726562 519.144531 99.941406 514.152344 C 98.152344 509.160156 96.492188 504.125 94.953125 499.050781 C 93.410156 493.976562 92 488.871094 90.710938 483.726562 C 89.421875 478.582031 88.261719 473.410156 87.226562 468.210938 C 86.191406 463.007812 85.285156 457.785156 84.507812 452.539062 C 83.730469 447.296875 83.078125 442.035156 82.558594 436.757812 C 82.039062 431.480469 81.652344 426.195312 81.390625 420.898438 C 81.128906 415.601562 81 410.300781 81 405 C 81 399.699219 81.128906 394.398438 81.390625 389.101562 C 81.652344 383.804688 82.039062 378.519531 82.558594 373.242188 C 83.078125 367.964844 83.730469 362.703125 84.507812 357.460938 C 85.285156 352.214844 86.191406 346.992188 87.226562 341.789062 C 88.261719 336.589844 89.421875 331.417969 90.710938 326.273438 C 92 321.128906 93.410156 316.023438 94.953125 310.949219 C 96.492188 305.875 98.152344 300.839844 99.941406 295.847656 C 101.726562 290.855469 103.632812 285.910156 105.664062 281.011719 C 107.691406 276.113281 109.839844 271.265625 112.109375 266.472656 C 114.375 261.679688 116.757812 256.945312 119.257812 252.265625 C 121.757812 247.589844 124.371094 242.980469 127.097656 238.429688 C 129.820312 233.882812 132.65625 229.402344 135.605469 224.996094 C 138.550781 220.585938 141.601562 216.253906 144.761719 211.992188 C 147.917969 207.734375 151.179688 203.554688 154.542969 199.457031 C 157.910156 195.359375 161.371094 191.34375 164.933594 187.414062 C 168.492188 183.484375 172.148438 179.648438 175.898438 175.898438 C 179.648438 172.148438 183.484375 168.492188 187.414062 164.933594 C 191.34375 161.371094 195.359375 157.910156 199.457031 154.542969 C 203.554688 151.179688 207.734375 147.917969 211.992188 144.761719 C 216.253906 141.601562 220.585938 138.550781 224.996094 135.605469 C 229.402344 132.65625 233.882812 129.820312 238.429688 127.097656 C 242.980469 124.371094 247.589844 121.757812 252.265625 119.257812 C 256.945312 116.757812 261.679688 114.375 266.472656 112.109375 C 271.265625 109.839844 276.113281 107.691406 281.011719 105.664062 C 285.910156 103.632812 290.855469 101.726562 295.847656 99.941406 C 300.839844 98.152344 305.875 96.492188 310.949219 94.953125 C 316.023438 93.414062 321.128906 92 326.273438 90.710938 C 331.417969 89.421875 336.589844 88.261719 341.789062 87.226562 C 346.992188 86.191406 352.214844 85.285156 357.460938 84.507812 C 362.703125 83.730469 367.964844 83.078125 373.242188 82.558594 C 378.519531 82.039062 383.804688 81.652344 389.101562 81.390625 C 394.398438 81.128906 399.699219 81 405 81 L 405 119.878906 C 400.332031 119.878906 395.671875 119.996094 391.011719 120.222656 C 386.347656 120.453125 381.695312 120.796875 377.054688 121.253906 C 372.410156 121.710938 367.78125 122.28125 363.164062 122.964844 C 358.546875 123.652344 353.953125 124.449219 349.375 125.359375 C 344.800781 126.269531 340.246094 127.289062 335.722656 128.425781 C 331.195312 129.558594 326.699219 130.800781 322.234375 132.15625 C 317.769531 133.511719 313.339844 134.976562 308.945312 136.546875 C 304.550781 138.117188 300.199219 139.796875 295.890625 141.582031 C 291.578125 143.371094 287.3125 145.257812 283.09375 147.253906 C 278.878906 149.25 274.710938 151.347656 270.59375 153.546875 C 266.480469 155.746094 262.421875 158.046875 258.417969 160.445312 C 254.417969 162.84375 250.476562 165.339844 246.597656 167.929688 C 242.714844 170.523438 238.902344 173.210938 235.152344 175.988281 C 231.40625 178.769531 227.730469 181.640625 224.121094 184.597656 C 220.515625 187.558594 216.984375 190.605469 213.523438 193.738281 C 210.066406 196.875 206.6875 200.089844 203.390625 203.390625 C 200.089844 206.6875 196.875 210.066406 193.738281 213.523438 C 190.605469 216.984375 187.558594 220.515625 184.597656 224.121094 C 181.640625 227.730469 178.769531 231.40625 175.988281 235.152344 C 173.210938 238.902344 170.523438 242.714844 167.929688 246.597656 C 165.339844 250.476562 162.84375 254.417969 160.445312 258.417969 C 158.046875 262.421875 155.746094 266.480469 153.546875 270.59375 C 151.347656 274.710938 149.25 278.878906 147.253906 283.09375 C 145.257812 287.3125 143.367188 291.578125 141.582031 295.890625 C 139.796875 300.199219 138.117188 304.550781 136.546875 308.945312 C 134.976562 313.339844 133.511719 317.769531 132.15625 322.234375 C 130.800781 326.699219 129.558594 331.195312 128.425781 335.722656 C 127.289062 340.246094 126.269531 344.800781 125.359375 349.375 C 124.449219 353.953125 123.652344 358.546875 122.964844 363.164062 C 122.28125 367.78125 121.710938 372.410156 121.253906 377.054688 C 120.796875 381.695312 120.453125 386.347656 120.222656 391.011719 C 119.996094 395.671875 119.878906 400.332031 119.878906 405 C 119.878906 409.667969 119.996094 414.328125 120.222656 418.988281 C 120.453125 423.652344 120.796875 428.304688 121.253906 432.945312 C 121.710938 437.589844 122.28125 442.21875 122.964844 446.835938 C 123.652344 451.453125 124.449219 456.046875 125.359375 460.625 C 126.269531 465.199219 127.289062 469.753906 128.425781 474.277344 C 129.558594 478.804688 130.800781 483.300781 132.15625 487.765625 C 133.511719 492.230469 134.976562 496.660156 136.546875 501.054688 C 138.117188 505.449219 139.796875 509.800781 141.582031 514.109375 C 143.367188 518.421875 145.257812 522.6875 147.253906 526.90625 C 149.25 531.121094 151.347656 535.289062 153.546875 539.40625 C 155.746094 543.519531 158.046875 547.578125 160.445312 551.582031 C 162.84375 555.582031 165.339844 559.523438 167.929688 563.402344 C 170.523438 567.285156 173.210938 571.097656 175.988281 574.847656 C 178.769531 578.59375 181.640625 582.269531 184.597656 585.878906 C 187.558594 589.484375 190.605469 593.015625 193.738281 596.476562 C 196.875 599.933594 200.089844 603.3125 203.390625 606.609375 C 206.6875 609.910156 210.066406 613.125 213.523438 616.261719 C 216.984375 619.394531 220.515625 622.441406 224.121094 625.402344 C 227.730469 628.359375 231.40625 631.230469 235.152344 634.011719 C 238.902344 636.789062 242.714844 639.476562 246.597656 642.070312 C 250.476562 644.660156 254.417969 647.15625 258.417969 649.554688 C 262.421875 651.953125 266.480469 654.253906 270.59375 656.453125 C 274.710938 658.652344 278.878906 660.75 283.09375 662.746094 C 287.3125 664.742188 291.578125 666.628906 295.890625 668.417969 C 300.199219 670.203125 304.550781 671.882812 308.945312 673.453125 C 313.339844 675.023438 317.769531 676.488281 322.234375 677.84375 C 326.699219 679.199219 331.195312 680.441406 335.722656 681.574219 C 340.246094 682.710938 344.800781 683.730469 349.375 684.640625 C 353.953125 685.550781 358.546875 686.347656 363.164062 687.035156 C 367.78125 687.71875 372.410156 688.289062 377.054688 688.746094 C 381.695312 689.203125 386.347656 689.546875 391.011719 689.777344 C 395.671875 690.003906 400.332031 690.121094 405 690.121094 C 409.667969 690.121094 414.328125 690.003906 418.988281 689.777344 C 423.652344 689.546875 428.304688 689.203125 432.945312 688.746094 C 437.589844 688.289062 442.21875 687.71875 446.835938 687.035156 C 451.453125 686.347656 456.046875 685.550781 460.625 684.640625 C 465.199219 683.730469 469.753906 682.710938 474.277344 681.574219 C 478.804688 680.441406 483.300781 679.199219 487.765625 677.84375 C 492.230469 676.488281 496.660156 675.023438 501.054688 673.453125 C 505.449219 671.882812 509.800781 670.203125 514.109375 668.417969 C 518.421875 666.628906 522.6875 664.742188 526.90625 662.746094 C 531.121094 660.75 535.289062 658.652344 539.40625 656.453125 C 543.519531 654.253906 547.578125 651.953125 551.582031 649.554688 C 555.582031 647.15625 559.523438 644.660156 563.402344 642.070312 C 567.285156 639.476562 571.097656 636.789062 574.847656 634.011719 C 578.59375 631.230469 582.269531 628.359375 585.878906 625.402344 C 589.484375 622.441406 593.015625 619.394531 596.476562 616.261719 C 599.933594 613.125 603.3125 609.910156 606.609375 606.609375 C 609.910156 603.3125 613.125 599.933594 616.261719 596.476562 C 619.394531 593.015625 622.441406 589.484375 625.402344 585.878906 C 628.359375 582.269531 631.230469 578.59375 634.011719 574.847656 C 636.789062 571.097656 639.476562 567.285156 642.070312 563.402344 C 644.660156 559.523438 647.15625 555.582031 649.554688 551.582031 C 651.953125 547.578125 654.253906 543.519531 656.453125 539.40625 C 658.652344 535.289062 660.75 531.121094 662.746094 526.90625 C 664.742188 522.6875 666.628906 518.421875 668.417969 514.109375 C 670.203125 509.800781 671.882812 505.449219 673.453125 501.054688 C 675.023438 496.660156 676.488281 492.230469 677.84375 487.765625 C 679.195312 483.300781 680.441406 478.804688 681.574219 474.277344 C 682.710938 469.753906 683.730469 465.199219 684.640625 460.625 C 685.550781 456.046875 686.347656 451.453125 687.035156 446.835938 C 687.71875 442.21875 688.289062 437.589844 688.746094 432.945312 C 689.203125 428.304688 689.546875 423.652344 689.777344 418.988281 C 690.003906 414.328125 690.121094 409.667969 690.121094 405 C 690.121094 400.332031 690.003906 395.671875 689.777344 391.011719 C 689.546875 386.347656 689.203125 381.695312 688.746094 377.054688 C 688.289062 372.410156 687.71875 367.78125 687.035156 363.164062 C 686.347656 358.546875 685.550781 353.953125 684.640625 349.375 C 683.730469 344.800781 682.710938 340.246094 681.574219 335.722656 C 680.441406 331.195312 679.195312 326.699219 677.84375 322.234375 C 676.488281 317.769531 675.023438 313.339844 673.453125 308.945312 C 671.882812 304.550781 670.203125 300.199219 668.417969 295.890625 C 666.628906 291.578125 664.742188 287.3125 662.746094 283.09375 C 660.75 278.878906 658.652344 274.710938 656.453125 270.59375 C 654.253906 266.480469 651.953125 262.421875 649.554688 258.417969 C 647.15625 254.417969 644.660156 250.476562 642.070312 246.597656 C 639.476562 242.714844 636.789062 238.902344 634.011719 235.152344 C 631.230469 231.40625 628.359375 227.730469 625.402344 224.121094 C 622.441406 220.515625 619.394531 216.984375 616.261719 213.523438 C 613.125 210.066406 609.910156 206.6875 606.609375 203.390625 C 603.3125 200.089844 599.933594 196.875 596.476562 193.738281 C 593.015625 190.605469 589.484375 187.558594 585.878906 184.597656 C 582.269531 181.640625 578.59375 178.769531 574.847656 175.988281 C 571.097656 173.210938 567.285156 170.523438 563.402344 167.929688 C 559.523438 165.339844 555.582031 162.84375 551.582031 160.445312 C 547.578125 158.046875 543.519531 155.746094 539.40625 153.546875 C 535.289062 151.347656 531.121094 149.25 526.90625 147.253906 C 522.6875 145.257812 518.421875 143.371094 514.109375 141.582031 C 509.800781 139.796875 505.449219 138.117188 501.054688 136.546875 C 496.660156 134.976562 492.230469 133.511719 487.765625 132.15625 C 483.300781 130.800781 478.804688 129.558594 474.277344 128.425781 C 469.753906 127.289062 465.199219 126.269531 460.625 125.359375 C 456.046875 124.449219 451.453125 123.652344 446.835938 122.964844 C 442.21875 122.28125 437.589844 121.710938 432.945312 121.253906 C 428.304688 120.796875 423.652344 120.453125 418.988281 120.222656 C 414.328125 119.996094 409.667969 119.878906 405 119.878906 Z M 405 81 "/>
<path style=" stroke:none;fill-rule:nonzero;fill:rgb(97.24884%,97.648621%,98.039246%);fill-opacity:1;" d="M 425.679688 81.660156 C 430.96875 82 436.25 82.46875 441.515625 83.0625 C 446.78125 83.660156 452.03125 84.386719 457.261719 85.242188 C 462.492188 86.097656 467.699219 87.078125 472.878906 88.191406 C 478.0625 89.300781 483.214844 90.539062 488.335938 91.902344 C 493.457031 93.265625 498.542969 94.753906 503.59375 96.363281 C 508.640625 97.976562 513.648438 99.714844 518.613281 101.570312 C 523.574219 103.429688 528.488281 105.410156 533.355469 107.507812 C 538.222656 109.609375 543.035156 111.828125 547.792969 114.164062 C 552.550781 116.5 557.246094 118.949219 561.886719 121.515625 C 566.523438 124.082031 571.09375 126.761719 575.601562 129.550781 C 580.105469 132.34375 584.539062 135.242188 588.90625 138.25 C 593.269531 141.257812 597.554688 144.371094 601.765625 147.589844 C 605.976562 150.808594 610.105469 154.128906 614.152344 157.550781 C 618.203125 160.972656 622.164062 164.492188 626.039062 168.109375 C 629.914062 171.722656 633.699219 175.433594 637.390625 179.234375 C 641.085938 183.035156 644.683594 186.925781 648.183594 190.902344 C 651.6875 194.882812 655.089844 198.945312 658.390625 203.089844 C 661.695312 207.234375 664.894531 211.457031 667.992188 215.757812 C 671.085938 220.0625 674.074219 224.4375 676.957031 228.886719 C 679.835938 233.335938 682.605469 237.851562 685.265625 242.4375 C 687.925781 247.019531 690.46875 251.667969 692.902344 256.378906 C 695.332031 261.085938 697.648438 265.855469 699.84375 270.675781 C 702.042969 275.5 704.121094 280.375 706.078125 285.300781 C 708.035156 290.226562 709.871094 295.195312 711.585938 300.210938 C 713.300781 305.226562 714.890625 310.28125 716.355469 315.375 C 717.824219 320.464844 719.164062 325.59375 720.378906 330.753906 C 721.59375 335.910156 722.679688 341.097656 723.640625 346.308594 C 724.601562 351.523438 725.433594 356.753906 726.136719 362.007812 C 726.839844 367.261719 727.414062 372.527344 727.855469 377.808594 C 728.300781 383.089844 728.617188 388.382812 728.800781 393.679688 C 728.988281 398.976562 729.042969 404.273438 728.96875 409.574219 C 728.894531 414.871094 728.6875 420.167969 728.355469 425.457031 C 728.019531 430.746094 727.554688 436.023438 726.960938 441.292969 C 726.367188 446.558594 725.644531 451.808594 724.792969 457.039062 C 723.941406 462.269531 722.964844 467.476562 721.855469 472.660156 C 720.75 477.84375 719.515625 482.996094 718.15625 488.121094 C 716.796875 493.242188 715.3125 498.328125 713.703125 503.378906 C 712.09375 508.429688 710.363281 513.4375 708.507812 518.402344 C 706.652344 523.367188 704.675781 528.28125 702.578125 533.148438 C 700.484375 538.019531 698.269531 542.832031 695.9375 547.589844 C 693.605469 552.351562 691.15625 557.050781 688.59375 561.6875 C 686.03125 566.328125 683.355469 570.902344 680.566406 575.410156 C 677.777344 579.917969 674.882812 584.355469 671.875 588.71875 C 668.871094 593.085938 665.761719 597.375 662.542969 601.585938 C 659.328125 605.800781 656.011719 609.933594 652.59375 613.984375 C 649.175781 618.03125 645.660156 621.996094 642.046875 625.875 C 638.433594 629.753906 634.726562 633.539062 630.925781 637.234375 C 627.128906 640.929688 623.242188 644.53125 619.265625 648.035156 C 615.289062 651.542969 611.230469 654.945312 607.085938 658.253906 C 602.945312 661.558594 598.722656 664.761719 594.421875 667.859375 C 590.121094 670.957031 585.75 673.949219 581.304688 676.832031 C 576.855469 679.71875 572.339844 682.492188 567.757812 685.152344 C 563.175781 687.816406 558.53125 690.363281 553.820312 692.796875 C 549.113281 695.234375 544.347656 697.550781 539.527344 699.75 C 534.707031 701.953125 529.832031 704.03125 524.910156 705.996094 C 519.984375 707.957031 515.015625 709.796875 510.003906 711.511719 C 504.988281 713.230469 499.933594 714.824219 494.84375 716.292969 C 489.75 717.765625 484.625 719.109375 479.46875 720.328125 C 474.308594 721.542969 469.125 722.636719 463.910156 723.597656 C 458.699219 724.5625 453.46875 725.398438 448.214844 726.105469 C 442.960938 726.8125 437.695312 727.390625 432.414062 727.839844 C 427.132812 728.285156 421.84375 728.605469 416.546875 728.792969 C 411.25 728.984375 405.953125 729.042969 400.652344 728.972656 C 395.351562 728.898438 390.058594 728.699219 384.769531 728.367188 C 379.476562 728.035156 374.199219 727.578125 368.933594 726.984375 C 363.664062 726.394531 358.414062 725.675781 353.183594 724.828125 C 347.953125 723.980469 342.742188 723.007812 337.558594 721.902344 C 332.375 720.800781 327.222656 719.570312 322.097656 718.214844 C 316.972656 716.859375 311.886719 715.378906 306.835938 713.769531 C 301.785156 712.164062 296.777344 710.4375 291.808594 708.585938 C 286.84375 706.734375 281.925781 704.761719 277.054688 702.667969 C 272.1875 700.574219 267.371094 698.363281 262.609375 696.035156 C 257.851562 693.707031 253.148438 691.261719 248.507812 688.703125 C 243.867188 686.140625 239.292969 683.46875 234.78125 680.683594 C 230.273438 677.898438 225.832031 675.007812 221.464844 672.003906 C 217.097656 669 212.804688 665.894531 208.589844 662.679688 C 204.375 659.46875 200.242188 656.152344 196.191406 652.738281 C 192.136719 649.324219 188.171875 645.808594 184.289062 642.199219 C 180.410156 638.589844 176.621094 634.882812 172.921875 631.089844 C 169.222656 627.292969 165.621094 623.40625 162.113281 619.433594 C 158.605469 615.460938 155.195312 611.402344 151.886719 607.261719 C 148.578125 603.121094 145.375 598.902344 142.273438 594.605469 C 139.171875 590.308594 136.175781 585.9375 133.289062 581.492188 C 130.402344 577.046875 127.625 572.535156 124.960938 567.953125 C 122.292969 563.371094 119.742188 558.726562 117.304688 554.023438 C 114.867188 549.316406 112.546875 544.550781 110.34375 539.730469 C 108.136719 534.910156 106.054688 530.039062 104.089844 525.117188 C 102.125 520.195312 100.28125 515.226562 98.558594 510.214844 C 96.839844 505.203125 95.242188 500.148438 93.769531 495.058594 C 92.292969 489.96875 90.945312 484.84375 89.726562 479.6875 C 88.503906 474.527344 87.410156 469.34375 86.441406 464.132812 C 85.472656 458.921875 84.636719 453.691406 83.925781 448.4375 C 83.214844 443.1875 82.632812 437.917969 82.179688 432.636719 C 81.730469 427.355469 81.40625 422.070312 81.214844 416.773438 C 81.019531 411.476562 80.957031 406.175781 81.027344 400.878906 C 81.09375 395.578125 81.292969 390.28125 81.617188 384.992188 C 81.65625 384.355469 81.726562 383.726562 81.828125 383.097656 C 81.929688 382.46875 82.0625 381.847656 82.226562 381.230469 C 82.386719 380.613281 82.582031 380.007812 82.800781 379.410156 C 83.023438 378.816406 83.273438 378.230469 83.554688 377.660156 C 83.835938 377.085938 84.140625 376.53125 84.476562 375.988281 C 84.808594 375.445312 85.167969 374.921875 85.554688 374.414062 C 85.941406 373.910156 86.351562 373.421875 86.785156 372.957031 C 87.21875 372.488281 87.671875 372.046875 88.148438 371.625 C 88.628906 371.203125 89.125 370.804688 89.640625 370.433594 C 90.15625 370.058594 90.691406 369.714844 91.238281 369.394531 C 91.789062 369.074219 92.355469 368.78125 92.933594 368.515625 C 93.511719 368.25 94.101562 368.015625 94.707031 367.808594 C 95.308594 367.601562 95.917969 367.425781 96.539062 367.277344 C 97.15625 367.128906 97.78125 367.015625 98.414062 366.929688 C 99.042969 366.84375 99.679688 366.789062 100.3125 366.765625 C 100.949219 366.742188 101.585938 366.75 102.222656 366.789062 C 102.855469 366.828125 103.488281 366.898438 104.117188 367 C 104.746094 367.101562 105.367188 367.234375 105.984375 367.398438 C 106.597656 367.558594 107.207031 367.753906 107.800781 367.972656 C 108.398438 368.195312 108.984375 368.445312 109.554688 368.726562 C 110.128906 369.007812 110.683594 369.3125 111.226562 369.648438 C 111.769531 369.980469 112.292969 370.339844 112.800781 370.726562 C 113.304688 371.113281 113.792969 371.523438 114.257812 371.957031 C 114.722656 372.390625 115.167969 372.84375 115.589844 373.320312 C 116.011719 373.800781 116.410156 374.296875 116.78125 374.8125 C 117.152344 375.328125 117.5 375.863281 117.820312 376.410156 C 118.140625 376.960938 118.433594 377.527344 118.699219 378.105469 C 118.964844 378.683594 119.199219 379.273438 119.40625 379.875 C 119.613281 380.480469 119.789062 381.089844 119.9375 381.710938 C 120.082031 382.328125 120.199219 382.953125 120.285156 383.585938 C 120.371094 384.214844 120.425781 384.851562 120.449219 385.484375 C 120.472656 386.121094 120.464844 386.757812 120.425781 387.394531 C 120.136719 392.046875 119.960938 396.707031 119.902344 401.371094 C 119.84375 406.035156 119.898438 410.699219 120.066406 415.359375 C 120.238281 420.019531 120.519531 424.675781 120.917969 429.320312 C 121.316406 433.96875 121.828125 438.601562 122.453125 443.226562 C 123.078125 447.847656 123.816406 452.453125 124.667969 457.035156 C 125.519531 461.621094 126.484375 466.183594 127.558594 470.722656 C 128.632812 475.261719 129.820312 479.773438 131.117188 484.25 C 132.414062 488.730469 133.816406 493.179688 135.332031 497.589844 C 136.847656 502 138.46875 506.371094 140.199219 510.703125 C 141.925781 515.035156 143.761719 519.324219 145.699219 523.5625 C 147.640625 527.804688 149.683594 531.996094 151.828125 536.140625 C 153.972656 540.28125 156.21875 544.367188 158.566406 548.398438 C 160.910156 552.429688 163.355469 556.402344 165.894531 560.3125 C 168.433594 564.222656 171.070312 568.070312 173.800781 571.851562 C 176.527344 575.636719 179.351562 579.347656 182.261719 582.992188 C 185.171875 586.636719 188.171875 590.207031 191.257812 593.703125 C 194.347656 597.199219 197.515625 600.617188 200.773438 603.957031 C 204.027344 607.296875 207.359375 610.558594 210.777344 613.734375 C 214.191406 616.914062 217.679688 620.003906 221.246094 623.007812 C 224.8125 626.015625 228.449219 628.933594 232.160156 631.757812 C 235.871094 634.585938 239.644531 637.320312 243.488281 639.964844 C 247.332031 642.605469 251.238281 645.152344 255.207031 647.601562 C 259.175781 650.054688 263.203125 652.40625 267.289062 654.65625 C 271.371094 656.910156 275.507812 659.0625 279.699219 661.109375 C 283.886719 663.160156 288.125 665.105469 292.410156 666.949219 C 296.695312 668.789062 301.023438 670.527344 305.394531 672.15625 C 309.761719 673.785156 314.171875 675.304688 318.617188 676.71875 C 323.0625 678.132812 327.539062 679.433594 332.046875 680.628906 C 336.554688 681.820312 341.089844 682.902344 345.652344 683.875 C 350.214844 684.847656 354.796875 685.703125 359.402344 686.449219 C 364.007812 687.195312 368.625 687.828125 373.261719 688.347656 C 377.894531 688.867188 382.539062 689.273438 387.195312 689.5625 C 391.851562 689.855469 396.511719 690.03125 401.175781 690.09375 C 405.835938 690.15625 410.5 690.105469 415.160156 689.9375 C 419.824219 689.773438 424.476562 689.492188 429.125 689.097656 C 433.773438 688.703125 438.40625 688.195312 443.027344 687.574219 C 447.652344 686.949219 452.257812 686.214844 456.84375 685.367188 C 461.429688 684.519531 465.992188 683.558594 470.53125 682.488281 C 475.070312 681.414062 479.582031 680.234375 484.0625 678.9375 C 488.542969 677.644531 492.988281 676.242188 497.402344 674.730469 C 501.816406 673.21875 506.1875 671.601562 510.519531 669.875 C 514.851562 668.148438 519.140625 666.316406 523.382812 664.382812 C 527.628906 662.445312 531.820312 660.40625 535.964844 658.261719 C 540.105469 656.121094 544.195312 653.878906 548.226562 651.535156 C 552.261719 649.191406 556.234375 646.75 560.148438 644.214844 C 564.058594 641.675781 567.910156 639.042969 571.691406 636.316406 C 575.476562 633.589844 579.191406 630.769531 582.835938 627.863281 C 586.484375 624.953125 590.054688 621.957031 593.554688 618.871094 C 597.050781 615.789062 600.472656 612.617188 603.816406 609.367188 C 607.160156 606.113281 610.421875 602.78125 613.601562 599.371094 C 616.78125 595.957031 619.875 592.46875 622.882812 588.90625 C 625.890625 585.339844 628.808594 581.703125 631.640625 577.996094 C 634.46875 574.289062 637.207031 570.515625 639.851562 566.671875 C 642.496094 562.832031 645.046875 558.925781 647.5 554.960938 C 649.953125 550.992188 652.304688 546.96875 654.5625 542.886719 C 656.816406 538.804688 658.972656 534.667969 661.023438 530.480469 C 663.078125 526.292969 665.023438 522.054688 666.871094 517.773438 C 668.714844 513.488281 670.453125 509.160156 672.085938 504.792969 C 673.71875 500.421875 675.242188 496.015625 676.660156 491.574219 C 678.074219 487.128906 679.382812 482.652344 680.578125 478.144531 C 681.773438 473.636719 682.859375 469.101562 683.832031 464.539062 C 684.808594 459.980469 685.667969 455.398438 686.417969 450.792969 C 687.167969 446.191406 687.804688 441.570312 688.324219 436.9375 C 688.847656 432.300781 689.257812 427.65625 689.550781 423 C 689.84375 418.347656 690.027344 413.6875 690.089844 409.023438 C 690.15625 404.359375 690.109375 399.699219 689.945312 395.035156 C 689.78125 390.375 689.503906 385.71875 689.113281 381.074219 C 688.722656 376.425781 688.21875 371.789062 687.597656 367.167969 C 686.980469 362.542969 686.25 357.9375 685.402344 353.351562 C 684.558594 348.765625 683.601562 344.203125 682.53125 339.660156 C 681.464844 335.121094 680.285156 330.609375 678.992188 326.128906 C 677.703125 321.644531 676.304688 317.199219 674.796875 312.785156 C 673.289062 308.371094 671.671875 303.996094 669.949219 299.664062 C 668.226562 295.328125 666.398438 291.039062 664.464844 286.796875 C 662.53125 282.550781 660.492188 278.355469 658.355469 274.210938 C 656.214844 270.066406 653.972656 265.976562 651.632812 261.945312 C 649.292969 257.910156 646.855469 253.933594 644.320312 250.019531 C 641.785156 246.105469 639.15625 242.253906 636.433594 238.46875 C 633.707031 234.683594 630.890625 230.964844 627.984375 227.316406 C 625.078125 223.671875 622.085938 220.097656 619.003906 216.59375 C 615.921875 213.09375 612.753906 209.671875 609.503906 206.324219 C 606.253906 202.980469 602.925781 199.71875 599.515625 196.535156 C 596.105469 193.351562 592.617188 190.257812 589.054688 187.246094 C 585.492188 184.234375 581.859375 181.3125 578.152344 178.480469 C 574.449219 175.648438 570.675781 172.90625 566.835938 170.261719 C 562.996094 167.613281 559.09375 165.0625 555.128906 162.605469 C 551.164062 160.148438 547.140625 157.792969 543.058594 155.535156 C 538.976562 153.277344 534.84375 151.117188 530.65625 149.0625 C 526.472656 147.007812 522.234375 145.054688 517.953125 143.207031 C 513.671875 141.359375 509.347656 139.617188 504.976562 137.984375 C 500.609375 136.347656 496.203125 134.820312 491.761719 133.402344 C 487.320312 131.980469 482.84375 130.671875 478.335938 129.472656 C 473.828125 128.273438 469.296875 127.183594 464.734375 126.207031 C 460.175781 125.230469 455.59375 124.367188 450.988281 123.613281 C 446.386719 122.859375 441.765625 122.222656 437.132812 121.695312 C 432.5 121.171875 427.855469 120.757812 423.199219 120.460938 C 422.5625 120.421875 421.933594 120.347656 421.304688 120.246094 C 420.675781 120.144531 420.054688 120.011719 419.4375 119.847656 C 418.824219 119.683594 418.21875 119.488281 417.621094 119.265625 C 417.023438 119.042969 416.441406 118.789062 415.871094 118.511719 C 415.296875 118.230469 414.742188 117.921875 414.199219 117.585938 C 413.660156 117.25 413.136719 116.890625 412.628906 116.503906 C 412.125 116.117188 411.640625 115.703125 411.171875 115.269531 C 410.707031 114.835938 410.265625 114.378906 409.84375 113.902344 C 409.425781 113.421875 409.027344 112.925781 408.65625 112.410156 C 408.285156 111.890625 407.9375 111.359375 407.621094 110.808594 C 407.300781 110.257812 407.007812 109.691406 406.746094 109.113281 C 406.480469 108.53125 406.246094 107.941406 406.042969 107.339844 C 405.835938 106.734375 405.660156 106.125 405.515625 105.503906 C 405.371094 104.886719 405.253906 104.261719 405.171875 103.628906 C 405.085938 102.996094 405.035156 102.363281 405.011719 101.726562 C 404.988281 101.089844 405 100.457031 405.039062 99.820312 C 405.082031 99.183594 405.152344 98.554688 405.253906 97.925781 C 405.359375 97.296875 405.492188 96.675781 405.65625 96.058594 C 405.820312 95.445312 406.011719 94.839844 406.234375 94.242188 C 406.457031 93.644531 406.710938 93.0625 406.992188 92.492188 C 407.273438 91.917969 407.578125 91.363281 407.914062 90.820312 C 408.25 90.28125 408.613281 89.757812 409 89.25 C 409.386719 88.746094 409.796875 88.261719 410.230469 87.792969 C 410.664062 87.328125 411.121094 86.886719 411.597656 86.464844 C 412.078125 86.046875 412.574219 85.648438 413.089844 85.277344 C 413.609375 84.90625 414.144531 84.558594 414.695312 84.242188 C 415.246094 83.921875 415.808594 83.628906 416.390625 83.367188 C 416.96875 83.101562 417.558594 82.867188 418.164062 82.664062 C 418.765625 82.457031 419.375 82.28125 419.996094 82.136719 C 420.617188 81.992188 421.242188 81.875 421.871094 81.792969 C 422.503906 81.707031 423.136719 81.65625 423.773438 81.632812 C 424.410156 81.609375 425.046875 81.621094 425.679688 81.660156 Z M 425.679688 81.660156 "/>
</g>
</svg>
